<svg xmlns="http://www.w3.org/2000/svg" viewBox="0 0 512 512">
  <defs>
    <linearGradient id="bg" x1="0%" y1="0%" x2="100%" y2="100%">
      <stop offset="0%" stop-color="#f8d9a8"/>
      <stop offset="100%" stop-color="#b85c38"/>
    </linearGradient>
  </defs>
  <rect width="512" height="512" rx="128" fill="url(#bg)"/>
  <path d="M138 155l53 53c18-22 40-38 65-48l-28-85c-4-13-21-16-30-5l-60 69c-8 9-8 23 0 31zm236-16l-60-69c-9-11-26-8-30 5l-28 85c25 10 47 26 65 48l53-53c8-8 8-22 0-31z" fill="#2d2218"/>
  <path d="M256 146c-91 0-165 77-165 171 0 55 26 96 74 96 28 0 48-10 64-27 8-8 14-8 22 0 16 17 36 27 64 27 48 0 74-41 74-96 0-94-74-171-165-171z" fill="#fff7ef"/>
  <path d="M201 259c0 18-11 33-25 33s-25-15-25-33 11-33 25-33 25 15 25 33zm160 0c0 18-11 33-25 33s-25-15-25-33 11-33 25-33 25 15 25 33z" fill="#2d2218"/>
  <path d="M255 286c-18 0-32 13-32 30 0 24 17 42 32 42s32-18 32-42c0-17-14-30-32-30z" fill="#b85c38"/>
  <path d="M201 375c20 22 41 33 55 33s35-11 55-33" fill="none" stroke="#2d2218" stroke-linecap="round" stroke-width="18"/>
</svg>
