<svg xmlns="http://www.w3.org/2000/svg" viewBox="0 0 512 512">
  <rect width="512" height="512" fill="#b85c38"/>
  <circle cx="256" cy="256" r="176" fill="#f8e6c8"/>
  <path d="M157 148l44 49c15-18 34-32 55-40l-23-68c-4-10-17-13-25-4l-51 57c-7 8-7 20 0 26zm198-6l-51-57c-8-9-21-6-25 4l-23 68c21 8 40 22 55 40l44-49c7-6 7-18 0-26z" fill="#2d2218"/>
  <path d="M256 168c-66 0-121 56-121 126 0 43 21 74 58 74 23 0 39-9 52-24 7-7 12-7 19 0 13 15 29 24 52 24 37 0 58-31 58-74 0-70-55-126-121-126z" fill="#fff7ef"/>
  <circle cx="198" cy="253" r="22" fill="#2d2218"/>
  <circle cx="314" cy="253" r="22" fill="#2d2218"/>
  <path d="M256 279c-15 0-26 11-26 24 0 20 13 35 26 35s26-15 26-35c0-13-11-24-26-24z" fill="#b85c38"/>
  <path d="M209 357c18 18 33 27 47 27s29-9 47-27" fill="none" stroke="#2d2218" stroke-linecap="round" stroke-width="16"/>
</svg>
